# xmcd CD database file
#
# Track frame offsets:
#	150
#	18886
#	35244
#	48223
#	67575
#	80486
#	106174
#	117770
#	129003
#	149384
#	168987
#	182241
#
# Disc length: 2719 seconds
#
# Revision: 0
# Processed by: cddbd v1.5.2PL0 Copyright (c) Steve Scherf et al.
# Submitted via: CDex 1.77
#
DISCID=910a9d0c
DTITLE=The Vespers - Sisters and Brothers
DYEAR=2014
DGENRE=Country
TTITLE0=Break the Cycle
TTITLE1=We Win
TTITLE2=New Kids
TTITLE3=Sisters and Brothers
TTITLE4=Not Enough 
TTITLE5=Out West
TTITLE6=Signs
TTITLE7=Cynical Soul
TTITLE8=The Curtain
TTITLE9=Please
TTITLE10=You Leave Me
TTITLE11=Thirst No More
EXTD=YEAR: 2014
EXTT0=
EXTT1=
EXTT2=
EXTT3=
EXTT4=
EXTT5=
EXTT6=
EXTT7=
EXTT8=
EXTT9=
EXTT10=
EXTT11=
PLAYORDER=
